<svg width="18" height="18" viewBox="0 0 18 18" fill="none" xmlns="http://www.w3.org/2000/svg">
<path d="M1.8 1.8H8.1V0H1.8C0.81 0 0 0.81 0 1.8V8.1H1.8V1.8ZM7.2 9.9L3.6 14.4H14.4L11.7 10.8L9.873 13.239L7.2 9.9ZM13.5 5.85C13.5 5.103 12.897 4.5 12.15 4.5C11.403 4.5 10.8 5.103 10.8 5.85C10.8 6.597 11.403 7.2 12.15 7.2C12.897 7.2 13.5 6.597 13.5 5.85ZM16.2 0H9.9V1.8H16.2V8.1H18V1.8C18 0.81 17.19 0 16.2 0ZM16.2 16.2H9.9V18H16.2C17.19 18 18 17.19 18 16.2V9.9H16.2V16.2ZM1.8 9.9H0V16.2C0 17.19 0.81 18 1.8 18H8.1V16.2H1.8V9.9Z" fill="#EB5E2A"/>
</svg>
